# xmcd CD database file
#
# Track frame offsets:
#	150
#	26491
#	50038
#	67093
#	99706
#	120322
#	151955
#	166035
#	192932
#	216527
#	248283
#	267990
#	286904
#	312074
#
# Disc length: 4385 seconds
#
# Revision: 2
# Processed by: cddbd v1.4PL0 Copyright (c) Steve Scherf et al.
# Submitted via: CDex 1.40Beta9
#
DISCID=c0111f0e
DTITLE=Cafe del Mar - Cafe Del Mar - Vol.6
DYEAR=2000
DGENRE=Easy Listening
TTITLE0=Talvin Singh - Traveller (Kid Loco's Once Upon A Time In The East Remix)
TTITLE1=Afterlife - Dub In Ya Mind (Beach Club Mix)
TTITLE2=A New Funky Generation - The Messenger
TTITLE3=dZihan and Kamien - Homebass
TTITLE4=Mandalay - Beuatiful (7" Canny Mix)
TTITLE5=Humate - 3.2 Bedrock  (Ambient Mix)
TTITLE6=Endorphin - Satie 1
TTITLE7=Nitin Sawhney - Homelands
TTITLE8=Rae and Christian - A Distant Invitation
TTITLE9=Bugge Wesseltoft - Existence (Edit)
TTITLE10=Paco Fernandez/Leviation feat. Cathy Battistessa - Oh Home
TTITLE11=Marc Collin - Les Kid Nappeurs Main Theme
TTITLE12=Jose Padilla - Adios Ayer
TTITLE13=Moonrock - I'll Street Blues
EXTD=YEAR: 2000 ID3G: 98
EXTT0=
EXTT1=
EXTT2=
EXTT3=
EXTT4=
EXTT5=
EXTT6=
EXTT7=
EXTT8=
EXTT9=
EXTT10=
EXTT11=
EXTT12=
EXTT13=
PLAYORDER=
